<svg width="34" height="32" viewBox="0 0 34 32" fill="none" xmlns="http://www.w3.org/2000/svg">
<path d="M11 31C15.9706 31 20 26.9706 20 22C20 17.0294 15.9706 13 11 13C6.02944 13 2 17.0294 2 22C2 26.9706 6.02944 31 11 31Z" fill="#2FAC66"/>
<path d="M23 19C27.9706 19 32 14.9706 32 10C32 5.02944 27.9706 1 23 1C18.0294 1 14 5.02944 14 10C14 11.3871 14.3138 12.7009 14.8742 13.8742C16.7323 14.7617 18.2383 16.2677 19.1258 18.1258C20.2991 18.6862 21.6129 19 23 19Z" fill="#2FAC66"/>
<path d="M7.54152 7.4825L10.3804 4.3296M10.3804 4.3296L7.2275 1.49072M10.3804 4.3296C6.29792 4.54356 1.42805 5.47459 1.70675 10.7924M26.4589 24.5158L23.62 27.6687M23.62 27.6687L26.7729 30.5076M23.62 27.6687C27.7025 27.4547 32.5724 26.5237 32.2937 21.2059M23 19C27.9706 19 32 14.9706 32 10C32 5.02944 27.9706 1 23 1C18.0294 1 14 5.02944 14 10C14 11.3871 14.3138 12.7009 14.8742 13.8742C16.7323 14.7617 18.2383 16.2677 19.1258 18.1258C20.2991 18.6862 21.6129 19 23 19ZM20 22C20 26.9706 15.9706 31 11 31C6.02944 31 2 26.9706 2 22C2 17.0294 6.02944 13 11 13C15.9706 13 20 17.0294 20 22Z" stroke="#15453B" stroke-width="1.5" stroke-linecap="round" stroke-linejoin="round"/>
</svg>
