<svg width="26" height="26" viewBox="0 0 26 26" fill="none" xmlns="http://www.w3.org/2000/svg">
<path fill-rule="evenodd" clip-rule="evenodd" d="M13.6571 2.60642C8.27617 2.60642 3.91406 6.97958 3.91406 12.3742C3.91406 13.9356 4.27854 15.4079 4.92567 16.7137C5.07856 17.0222 5.10338 17.3789 4.99472 17.7057L3.34532 22.6663L8.34334 21.0506C8.66651 20.9461 9.01762 20.9726 9.32159 21.1243C10.6258 21.7752 12.0969 22.1419 13.6571 22.1419C19.0381 22.1419 23.4002 17.7687 23.4002 12.3742C23.4002 6.97958 19.0381 2.60642 13.6571 2.60642ZM1.31423 12.3742C1.31423 5.5401 6.84033 0 13.6571 0C20.4739 0 26 5.5401 26 12.3742C26 19.2082 20.4739 24.7483 13.6571 24.7483C11.8781 24.7483 10.1842 24.3702 8.65338 23.6889L1.69888 25.9371C1.23245 26.0879 0.721086 25.9628 0.376261 25.6137C0.0314353 25.2646 -0.0882337 24.7507 0.0667449 24.2846L2.36414 17.3752C1.68886 15.8445 1.31423 14.1517 1.31423 12.3742Z" fill="white"/>
</svg>
