<svg width="27" height="27" viewBox="0 0 27 27" fill="none" xmlns="http://www.w3.org/2000/svg">
<path fill-rule="evenodd" clip-rule="evenodd" d="M13.5 1.5C6.87258 1.5 1.5 6.87258 1.5 13.5C1.5 20.1274 6.87258 25.5 13.5 25.5C20.1274 25.5 25.5 20.1274 25.5 13.5C25.5 6.87258 20.1274 1.5 13.5 1.5ZM0.5 13.5C0.5 6.3203 6.3203 0.5 13.5 0.5C20.6797 0.5 26.5 6.3203 26.5 13.5C26.5 20.6797 20.6797 26.5 13.5 26.5C6.3203 26.5 0.5 20.6797 0.5 13.5Z" fill="#2FAC66"/>
<path d="M6 19.9019C6.19859 19.4096 6.3902 18.9148 6.5983 18.4264C6.81402 17.9195 7.0456 17.419 7.28036 16.8937C8.45222 17.7514 9.60885 18.5977 10.782 19.4566C10.7211 19.4877 10.6824 19.5111 10.6411 19.5289C9.52574 20.0053 8.40907 20.4792 7.29495 20.9588C7.14141 21.0247 7.03609 21.0178 6.913 20.8852C6.61924 20.568 6.30581 20.2705 6 19.9647C6 19.9438 6 19.9228 6 19.9019Z" fill="#2FAC66"/>
<path d="M11.3543 5C11.3993 5.02157 11.4425 5.04885 11.4894 5.06471C12.096 5.27214 12.7006 5.48339 13.3103 5.68004C13.4778 5.73396 13.5508 5.82341 13.5793 5.99405C13.717 6.80921 13.6066 7.60598 13.4074 8.3945C13.134 9.47546 12.7038 10.4968 12.1854 11.482C12.1734 11.5048 12.1664 11.5378 12.1467 11.5486C12.0801 11.586 12.0059 11.6488 11.9405 11.6418C11.8365 11.6304 11.7756 11.5549 11.7921 11.428C11.9481 10.2234 11.7882 9.03267 11.6112 7.8464C11.4824 6.98113 11.3029 6.1241 11.1436 5.26326C11.1189 5.12941 11.1918 5.05963 11.2908 5C11.3118 5 11.3333 5 11.3543 5Z" fill="#2FAC66"/>
<path d="M8.72377 13.7029C9.12729 12.823 9.5232 11.9571 9.92228 11.0925C9.99841 10.9275 10.1266 10.8723 10.2966 10.9415C10.4254 10.9935 10.551 11.0633 10.6614 11.147C11.7724 11.9844 12.7685 12.9486 13.7411 13.9382C14.5019 14.7122 15.241 15.5051 15.8901 16.3774C15.9694 16.4846 16.0303 16.6083 16.0817 16.7326C16.1521 16.9039 16.1071 17.0282 15.9377 17.1056C15.4358 17.3346 14.9301 17.556 14.4219 17.7717C14.3781 17.7901 14.2957 17.7552 14.2487 17.721C12.9994 16.8157 11.7527 15.9073 10.5047 14.9995C9.91466 14.5707 9.32588 14.1406 8.72377 13.7029Z" fill="#2FAC66"/>
<path d="M13.8274 18.054C13.5781 18.1695 13.3573 18.2716 13.1365 18.3737C12.5693 18.6363 12.0014 18.8977 11.4348 19.1622C11.3651 19.1946 11.3124 19.2085 11.2388 19.1546C10.0149 18.257 8.78848 17.3638 7.56206 16.4694C7.54556 16.4573 7.53097 16.4421 7.50623 16.4199C7.84567 15.6789 8.18574 14.9374 8.53597 14.1729C10.2979 15.4652 12.0484 16.7485 13.8274 18.054Z" fill="#2FAC66"/>
<path d="M20.3212 13.3686C20.542 13.3952 20.8104 13.4295 21.0794 13.4586C21.2215 13.4745 21.297 13.5506 21.3414 13.6851C21.5368 14.2782 21.7386 14.8695 21.9385 15.4613C21.955 15.5108 21.9816 15.5584 21.9879 15.6092C21.9956 15.6745 22.014 15.7684 21.9803 15.8014C21.9302 15.8515 21.8319 15.8921 21.7646 15.88C21.0927 15.7614 20.4253 15.6174 19.7527 15.5064C18.657 15.325 17.5562 15.1771 16.4421 15.1778C16.1718 15.1778 15.9009 15.2044 15.6325 15.2355C15.4986 15.2507 15.3996 15.2127 15.3901 15.0877C15.3844 15.0173 15.4485 14.9037 15.5126 14.8707C16.7936 14.2059 18.112 13.6407 19.5548 13.4326C19.7914 13.3984 20.0312 13.392 20.3212 13.3686Z" fill="#2FAC66"/>
<path d="M15.7346 8.46174C15.6997 8.86139 15.5519 9.25533 15.3768 9.64039C15.0634 10.3306 14.6624 10.97 14.2341 11.5936C14.1631 11.697 14.0755 11.7579 13.9594 11.69C13.8534 11.6285 13.856 11.5295 13.8979 11.4166C14.0952 10.885 14.1732 10.3274 14.2316 9.76727C14.2836 9.26992 14.3172 8.77068 14.3591 8.27206C14.3724 8.11094 14.4283 8.05701 14.5894 8.07097C14.8959 8.09698 15.2017 8.12679 15.5075 8.16042C15.675 8.17881 15.7422 8.26445 15.7346 8.46174Z" fill="#2FAC66"/>
<path d="M18.5517 11.2961C18.7629 11.2897 18.8511 11.3551 18.8695 11.5143C18.9051 11.8252 18.9343 12.1366 18.9596 12.4481C18.973 12.6054 18.9171 12.6568 18.7515 12.6714C18.1805 12.7215 17.6063 12.7494 17.0397 12.8313C16.5474 12.9029 16.0627 13.0317 15.5773 13.1459C15.4669 13.1719 15.373 13.1548 15.3413 13.0634C15.3191 12.9987 15.3457 12.8693 15.3958 12.8351C16.293 12.2153 17.2034 11.6171 18.2795 11.3437C18.3848 11.317 18.4946 11.3056 18.5517 11.2961Z" fill="#2FAC66"/>
</svg>
