<svg width="24" height="24" viewBox="0 0 24 24" fill="none" xmlns="http://www.w3.org/2000/svg">
<path fill-rule="evenodd" clip-rule="evenodd" d="M12 23C18.0751 23 23 18.0751 23 12C23 5.92487 18.0751 1 12 1C5.92487 1 1 5.92487 1 12C1 18.0751 5.92487 23 12 23ZM12 24C18.6274 24 24 18.6274 24 12C24 5.37258 18.6274 0 12 0C5.37258 0 0 5.37258 0 12C0 18.6274 5.37258 24 12 24Z" fill="#2FAC66"/>
<path d="M12.2288 5C12.5705 5.13762 12.9476 5.22267 13.2469 5.42421C13.8613 5.83812 14.1376 6.46336 14.1422 7.20818C14.1432 7.42209 14.1422 7.63652 14.1422 7.87826C14.5592 7.87826 14.9531 7.87826 15.3476 7.87826C15.633 7.87826 15.919 7.87672 16.2045 7.87826C16.7192 7.88187 16.998 8.15815 16.9985 8.6803C17.0011 10.6148 16.9995 12.5493 16.9995 14.4837C16.9995 15.3708 17.0006 16.2584 16.9995 17.1455C16.9985 17.7321 16.7361 17.9991 16.161 17.9996C13.3917 18.0001 10.6228 18.0001 7.85349 17.9996C7.27896 17.9996 7.00115 17.7259 7.00115 17.1517C6.99962 14.3456 6.99962 11.54 7.00115 8.73391C7.00115 8.15506 7.27589 7.8793 7.84633 7.87826C8.50426 7.87723 9.16168 7.87826 9.83854 7.87826C9.85593 7.55199 9.8631 7.23602 9.89175 6.92211C9.97514 5.98812 10.7037 5.20154 11.6205 5.04124C11.666 5.0335 11.709 5.01392 11.753 5C11.9116 5 12.0697 5 12.2288 5ZM12.7107 7.86744C12.7107 7.60198 12.7194 7.36179 12.7087 7.12313C12.6923 6.75459 12.4191 6.47418 12.0635 6.44326C11.7039 6.41181 11.3621 6.65768 11.314 7.03035C11.2787 7.30199 11.3074 7.5824 11.3074 7.86796L12.7107 7.86744Z" fill="#2FAC66"/>
</svg>
