<svg width="26" height="26" viewBox="0 0 26 26" fill="none" xmlns="http://www.w3.org/2000/svg">
<path fill-rule="evenodd" clip-rule="evenodd" d="M13 1.5C6.64873 1.5 1.5 6.64873 1.5 13C1.5 19.3513 6.64873 24.5 13 24.5C19.3513 24.5 24.5 19.3513 24.5 13C24.5 6.64873 19.3513 1.5 13 1.5ZM0.5 13C0.5 6.09644 6.09644 0.5 13 0.5C19.9036 0.5 25.5 6.09644 25.5 13C25.5 19.9036 19.9036 25.5 13 25.5C6.09644 25.5 0.5 19.9036 0.5 13Z" fill="#2FAC66"/>
<path d="M5.5 11C5.5 11 9.02018 13.1408 10.7805 14.1754C10.8227 14.1999 10.8649 14.224 10.9248 14.259C11.3924 13.6563 11.8594 13.0546 12.3361 12.4405C10.435 11.3693 6.63985 9.23014 6.63985 9.23014L5.5 11Z" fill="#2FAC66"/>
<path d="M18.5486 8.77264C17.8051 8.39714 17.0799 8.03052 16.3543 7.66337C15.2744 7.11709 14.1955 6.56924 13.1131 6.02766C13.0531 5.99789 12.9576 5.98901 12.8996 6.01669C11.1083 6.87946 9.32 7.7485 7.53069 8.61649C7.51342 8.62484 7.49766 8.63686 7.46717 8.65618C7.50935 8.68386 7.5434 8.70893 7.57948 8.7293C9.35303 9.72942 11.1261 10.7295 12.9022 11.7255C12.9545 11.7547 13.0465 11.7615 13.0968 11.7344C14.8836 10.7713 16.6678 9.80253 18.4525 8.83479C18.4779 8.82121 18.5008 8.80346 18.5486 8.77264Z" fill="#2FAC66"/>
<path d="M13.4495 13.6067V19C13.5262 18.9608 13.5908 18.93 13.6538 18.8961C15.4217 17.9367 17.1943 17.1011 18.9638 16.1448C19.0654 16.09 19.0979 16.0299 19.0974 15.9145C19.0923 15.0261 19.0949 14.1378 19.0949 13.25C19.0949 13.2014 19.0949 13.1528 19.0949 13.0771C19.0227 13.1163 18.9724 13.1418 18.9236 13.17C17.7172 13.8798 16.5057 14.4642 15.2993 15.1739C14.9695 15.3682 14.7926 15.3322 14.5563 15.0261C14.2255 14.5979 13.8936 14.1707 13.5618 13.743C13.5323 13.7048 13.4998 13.6678 13.4495 13.6067Z" fill="#2FAC66"/>
<path d="M6.93206 12.9585C6.92901 13.0254 6.92596 13.0651 6.92596 13.1048C6.92596 13.9628 6.92647 14.8209 6.92443 15.679C6.92443 15.7662 6.93968 15.8236 7.02353 15.8712C8.8418 16.8932 10.658 17.9189 12.4748 18.9436C12.4956 18.9551 12.5175 18.9645 12.5531 18.9817V13.6103C12.3925 13.8166 12.2507 13.9983 12.1094 14.1801C11.8812 14.4741 11.6531 14.7687 11.4249 15.0627C11.2252 15.3202 11.0265 15.3599 10.7475 15.1954C9.52836 14.4788 8.30923 13.7612 7.0901 13.0447C7.04487 13.0181 6.9971 12.994 6.93206 12.9585Z" fill="#2FAC66"/>
<path d="M13.6787 12.4457C14.1554 13.0604 14.6168 13.6557 15.0853 14.2595C16.8899 13.1977 18.6868 12.1093 20.5 11.0424C20.125 10.4658 19.7555 9.9284 19.3805 9.35183C17.4804 10.3828 15.5889 11.409 13.6787 12.4457Z" fill="#2FAC66"/>
</svg>
