<svg width="23" height="23" viewBox="0 0 23 23" fill="none" xmlns="http://www.w3.org/2000/svg">
<path fill-rule="evenodd" clip-rule="evenodd" d="M3.62496 2C2.72752 2 2 2.72752 2 3.62496V14.1252C2 15.0227 2.72753 15.7502 3.62498 15.7502L9.81594 15.7501C10.1864 15.7501 10.5266 15.9549 10.6998 16.2824L12.4862 19.6584L13.8583 16.3656C14.0135 15.9929 14.3776 15.7502 14.7813 15.7502L19.3751 15.7502C20.2725 15.7501 21 15.0226 21 14.1252V11.5005C21 10.9482 21.4477 10.5005 22 10.5005C22.5523 10.5005 23 10.9482 23 11.5005V14.1252C23 16.1272 21.3771 17.7501 19.3751 17.7502L15.448 17.7502L13.517 22.3846C13.3681 22.7419 13.0264 22.9812 12.6398 22.9989C12.2532 23.0167 11.891 22.8098 11.71 22.4677L9.21373 17.7501L3.62499 17.7502C1.62297 17.7502 0 16.1272 0 14.1252V3.62496C0 1.62295 1.62295 0 3.62496 0H10.8436C11.3959 0 11.8436 0.447715 11.8436 1C11.8436 1.55228 11.3959 2 10.8436 2H3.62496ZM18.7188 2.00033C17.4589 2.00033 16.4376 3.02166 16.4376 4.28153C16.4376 5.5414 17.4589 6.56273 18.7188 6.56273C19.9787 6.56273 21 5.5414 21 4.28153C21 3.02166 19.9787 2.00033 18.7188 2.00033ZM14.4376 4.28153C14.4376 1.91709 16.3544 0.000330269 18.7188 0.000330269C21.0832 0.000330269 23 1.91709 23 4.28153C23 6.64597 21.0832 8.56273 18.7188 8.56273C16.3544 8.56273 14.4376 6.64597 14.4376 4.28153Z" fill="white"/>
</svg>
