<svg width="26" height="26" viewBox="0 0 26 26" fill="none" xmlns="http://www.w3.org/2000/svg">
<path fill-rule="evenodd" clip-rule="evenodd" d="M13 1.5C6.64873 1.5 1.5 6.64873 1.5 13C1.5 19.3513 6.64873 24.5 13 24.5C19.3513 24.5 24.5 19.3513 24.5 13C24.5 6.64873 19.3513 1.5 13 1.5ZM0.5 13C0.5 6.09644 6.09644 0.5 13 0.5C19.9036 0.5 25.5 6.09644 25.5 13C25.5 19.9036 19.9036 25.5 13 25.5C6.09644 25.5 0.5 19.9036 0.5 13Z" fill="#2FAC66"/>
<path d="M18.455 17.9085C18.701 17.9382 18.8762 18.047 18.964 18.2692C19.0948 18.5992 18.8602 18.9651 18.5 18.9974C18.4494 19.0021 18.3977 19 18.3465 19C14.7842 19 11.2214 19 7.65903 19C7.58565 19 7.51021 19.0026 7.43838 18.9887C7.19552 18.941 7.01467 18.7306 7.00123 18.4904C6.98728 18.2374 7.14333 18.0178 7.39343 17.9418C7.44097 17.9274 7.48954 17.9172 7.54586 17.9028V17.6975C7.54586 14.019 7.54586 10.3405 7.54586 6.66201C7.54535 6.19963 7.74584 6 8.20728 6C11.4007 6 14.5935 6 17.7869 6C18.2587 6 18.455 6.19706 18.455 6.67125C18.455 10.3441 18.455 14.017 18.455 17.6898V17.9085ZM10.8183 17.9074H11.9122V13.5951H14.1006V17.9069H15.1826V17.7494C15.1826 16.2042 15.1826 14.659 15.1826 13.1143C15.1826 12.7145 14.9651 12.5005 14.5599 12.5005C13.5322 12.5 12.5044 12.5005 11.4761 12.5005C11.024 12.5005 10.8188 12.7027 10.8188 13.1482C10.8188 14.6708 10.8188 16.1934 10.8188 17.716V17.9085L10.8183 17.9074ZM12.9963 8.16667C12.4682 8.16667 11.9396 8.16564 11.4115 8.16667C11.0638 8.16769 10.8193 8.39195 10.8188 8.70654C10.8183 9.01958 11.0648 9.24846 11.41 9.24897C12.4667 9.25051 13.5229 9.25 14.5796 9.24897C14.9372 9.24897 15.1852 9.02009 15.1811 8.69987C15.1769 8.38734 14.9304 8.16718 14.5811 8.16667C14.053 8.16564 13.5244 8.16667 12.9963 8.16667ZM12.9829 11.4167C13.5167 11.4167 14.051 11.4177 14.5847 11.4167C14.933 11.4156 15.179 11.1929 15.1816 10.8799C15.1842 10.5663 14.9377 10.3349 14.5935 10.3344C13.5311 10.3328 12.4693 10.3328 11.4069 10.3344C11.0612 10.3344 10.8168 10.5638 10.8188 10.8794C10.8209 11.1919 11.0674 11.4162 11.4151 11.4172C11.9375 11.4187 12.4605 11.4167 12.9829 11.4167Z" fill="#2FAC66"/>
</svg>
