<svg width="26" height="26" viewBox="0 0 26 26" fill="none" xmlns="http://www.w3.org/2000/svg">
<path fill-rule="evenodd" clip-rule="evenodd" d="M6 9.25C6 8.55964 6.58763 8 7.3125 8H15.1875C15.9124 8 16.5 8.55964 16.5 9.25V10.5H17.392C17.7907 10.5 18.1678 10.6726 18.4168 10.9691L19.7124 12.5114C19.8986 12.7331 20 13.0085 20 13.2923V15.0833C20 15.7737 19.4124 16.3333 18.6875 16.3333H18.25C18.25 17.2538 17.4665 18 16.5 18C15.5335 18 14.75 17.2538 14.75 16.3333H10.375C10.375 17.2538 9.5915 18 8.625 18C7.6585 18 6.875 17.2538 6.875 16.3333C6.875 16.3097 6.87552 16.2861 6.87654 16.2627C6.36596 16.0915 6 15.6281 6 15.0833V9.25ZM7.13221 15.4631C7.43992 14.9853 7.99338 14.6667 8.625 14.6667C9.27275 14.6667 9.8383 15.0018 10.1409 15.5H14.9841C15.1378 15.247 15.3593 15.036 15.625 14.8896V9.25C15.625 9.01988 15.4291 8.83333 15.1875 8.83333H7.3125C7.07088 8.83333 6.875 9.01988 6.875 9.25V15.0833C6.875 15.2522 6.98052 15.3977 7.13221 15.4631ZM16.5 14.6667C17.1477 14.6667 17.7133 15.0018 18.0159 15.5H18.6875C18.9291 15.5 19.125 15.3135 19.125 15.0833V13.2923C19.125 13.1977 19.0912 13.1059 19.0291 13.032L17.7336 11.4897C17.6506 11.3909 17.5249 11.3333 17.392 11.3333H16.5V14.6667ZM8.625 15.5C8.14175 15.5 7.75 15.8731 7.75 16.3333C7.75 16.7936 8.14175 17.1667 8.625 17.1667C9.10825 17.1667 9.5 16.7936 9.5 16.3333C9.5 15.8731 9.10825 15.5 8.625 15.5ZM16.5 15.5C16.0168 15.5 15.625 15.8731 15.625 16.3333C15.625 16.7936 16.0168 17.1667 16.5 17.1667C16.9832 17.1667 17.375 16.7936 17.375 16.3333C17.375 15.8731 16.9832 15.5 16.5 15.5Z" fill="#2FAC66"/>
<path fill-rule="evenodd" clip-rule="evenodd" d="M13 1.5C6.64873 1.5 1.5 6.64873 1.5 13C1.5 19.3513 6.64873 24.5 13 24.5C19.3513 24.5 24.5 19.3513 24.5 13C24.5 6.64873 19.3513 1.5 13 1.5ZM0.5 13C0.5 6.09644 6.09644 0.5 13 0.5C19.9036 0.5 25.5 6.09644 25.5 13C25.5 19.9036 19.9036 25.5 13 25.5C6.09644 25.5 0.5 19.9036 0.5 13Z" fill="#2FAC66"/>
</svg>
