<svg width="31" height="32" viewBox="0 0 31 32" fill="none" xmlns="http://www.w3.org/2000/svg">
<path fill-rule="evenodd" clip-rule="evenodd" d="M16.9436 1.43439C16.0694 0.855202 14.9306 0.855203 14.0564 1.43439L2.82116 8.87813C1.6834 9.63193 1 10.901 1 12.2599V25.4576C1 28.5186 3.49687 31 6.57692 31H24.4231C27.5031 31 30 28.5186 30 25.4576V12.2599C30 10.901 29.3166 9.63193 28.1788 8.87813L16.9436 1.43439ZM15.5 12C12.4624 12 10 14.4624 10 17.5C10 20.5376 12.4624 23 15.5 23C18.5376 23 21 20.5376 21 17.5C21 14.4624 18.5376 12 15.5 12Z" fill="#2FAC66" stroke="#19453B" stroke-width="2" stroke-linecap="round" stroke-linejoin="round"/>
</svg>
