<svg width="26" height="32" viewBox="0 0 26 32" fill="none" xmlns="http://www.w3.org/2000/svg">
<path d="M1 26.5V5.5C1 3.01472 3.01472 1 5.5 1H16.4839L25 10V26.5C25 28.9853 22.9853 31 20.5 31H5.5C3.01472 31 1 28.9853 1 26.5Z" fill="#2FAC66"/>
<path d="M7 16H19M7 21.25H13M25 10V26.5C25 28.9853 22.9853 31 20.5 31H5.5C3.01472 31 1 28.9853 1 26.5V5.5C1 3.01472 3.01472 1 5.5 1H16.4839M25 10L16.4839 1M25 10H19.4839C17.827 10 16.4839 8.65685 16.4839 7V1" stroke="#15453B" stroke-width="1.5" stroke-linecap="round" stroke-linejoin="round"/>
</svg>
