<svg width="26" height="26" viewBox="0 0 26 26" fill="none" xmlns="http://www.w3.org/2000/svg">
<path fill-rule="evenodd" clip-rule="evenodd" d="M10 13.875C8.34315 13.875 7 15.2461 7 16.9375C7 18.6289 8.34315 20 10 20H16C17.6569 20 19 18.6289 19 16.9375C19 15.2461 17.6569 13.875 16 13.875H10ZM16 19.125C17.1835 19.125 18.1429 18.1456 18.1429 16.9375C18.1429 15.7294 17.1835 14.75 16 14.75C14.8165 14.75 13.8571 15.7294 13.8571 16.9375C13.8571 18.1456 14.8165 19.125 16 19.125Z" fill="#2FAC66"/>
<path fill-rule="evenodd" clip-rule="evenodd" d="M10 6.875C8.81653 6.875 7.85714 7.85438 7.85714 9.0625C7.85714 10.2706 8.81653 11.25 10 11.25C11.1835 11.25 12.1429 10.2706 12.1429 9.0625C12.1429 7.85438 11.1835 6.875 10 6.875ZM12.0996 6.875C12.6552 7.43085 13 8.20557 13 9.0625C13 9.91943 12.6552 10.6941 12.0996 11.25H16C17.1835 11.25 18.1429 10.2706 18.1429 9.0625C18.1429 7.85438 17.1835 6.875 16 6.875H12.0996ZM10 6H16C17.6569 6 19 7.37113 19 9.0625C19 10.7539 17.6569 12.125 16 12.125H10C8.34315 12.125 7 10.7539 7 9.0625C7 7.37113 8.34315 6 10 6Z" fill="#2FAC66"/>
<path fill-rule="evenodd" clip-rule="evenodd" d="M13 1.5C6.64873 1.5 1.5 6.64873 1.5 13C1.5 19.3513 6.64873 24.5 13 24.5C19.3513 24.5 24.5 19.3513 24.5 13C24.5 6.64873 19.3513 1.5 13 1.5ZM0.5 13C0.5 6.09644 6.09644 0.5 13 0.5C19.9036 0.5 25.5 6.09644 25.5 13C25.5 19.9036 19.9036 25.5 13 25.5C6.09644 25.5 0.5 19.9036 0.5 13Z" fill="#2FAC66"/>
</svg>
